<svg width="45" height="45" viewBox="0 0 45 45" fill="none" xmlns="http://www.w3.org/2000/svg">
<path fill-rule="evenodd" clip-rule="evenodd" d="M23.4484 7.09711C19.692 6.86169 15.9788 8.00551 13.0059 10.3138C10.033 12.6221 8.00494 15.9362 7.30238 19.6339C6.59981 23.3315 7.27109 27.1585 9.19018 30.3963C9.3867 30.7278 9.43852 31.1255 9.33352 31.4964L7.68651 37.3135L14.6037 35.8098C17.8415 37.7289 21.6685 38.4002 25.3661 37.6976C29.0638 36.9951 32.3779 34.967 34.6862 31.9941C36.9945 29.0212 38.1383 25.308 37.9029 21.5516C37.6675 17.7952 36.069 14.2538 33.4076 11.5924C30.7462 8.93098 27.2048 7.33252 23.4484 7.09711ZM13.7026 38.5332C17.4131 40.5673 21.7216 41.2529 25.8911 40.4607C30.2619 39.6302 34.1792 37.233 36.9076 33.719C39.6361 30.205 40.9882 25.8159 40.7099 21.3757C40.4316 16.9355 38.5422 12.7495 35.3963 9.60366C32.2505 6.4578 28.0645 4.56838 23.6243 4.29012C19.1841 4.01185 14.795 5.36387 11.281 8.09235C7.76701 10.8208 5.36976 14.7381 4.53931 19.1089C3.74709 23.2784 4.4327 27.5869 6.46682 31.2974L4.97642 36.5613C4.83758 37.0406 4.82955 37.5482 4.95321 38.0317C5.07747 38.5174 5.3301 38.9608 5.68464 39.3154C6.03918 39.6699 6.48257 39.9225 6.96831 40.0468C7.45178 40.1705 7.9595 40.1624 8.43875 40.0236L13.7026 38.5332Z" fill="#0A0C04"/>
<path d="M22.5 24.6094C23.665 24.6094 24.6094 23.665 24.6094 22.5C24.6094 21.335 23.665 20.3906 22.5 20.3906C21.335 20.3906 20.3906 21.335 20.3906 22.5C20.3906 23.665 21.335 24.6094 22.5 24.6094Z" fill="#0A0C04"/>
<path d="M14.0625 24.6094C15.2275 24.6094 16.1719 23.665 16.1719 22.5C16.1719 21.335 15.2275 20.3906 14.0625 20.3906C12.8975 20.3906 11.9531 21.335 11.9531 22.5C11.9531 23.665 12.8975 24.6094 14.0625 24.6094Z" fill="#0A0C04"/>
<path d="M30.9375 24.6094C32.1025 24.6094 33.0469 23.665 33.0469 22.5C33.0469 21.335 32.1025 20.3906 30.9375 20.3906C29.7725 20.3906 28.8281 21.335 28.8281 22.5C28.8281 23.665 29.7725 24.6094 30.9375 24.6094Z" fill="#0A0C04"/>
</svg>
