<?xml version="1.0" encoding="utf-8"?><svg viewBox="0 0 60 60" xmlns="http://www.w3.org/2000/svg" xmlns:xlink="http://www.w3.org/1999/xlink"><style>:root>svg{display:none}:root>svg:target{display:block}</style><svg fill="none" viewBox="0 0 45 45" id="chat-icon" xmlns="http://www.w3.org/2000/svg"><path fill-rule="evenodd" clip-rule="evenodd" d="M23.448 7.097a15.451 15.451 0 00-14.258 23.3c.197.33.249.729.144 1.1l-1.647 5.816 6.917-1.503a15.451 15.451 0 108.844-28.713zm-9.745 31.436a18.264 18.264 0 10-7.236-7.236l-1.49 5.264a2.795 2.795 0 003.462 3.463l5.264-1.49z" fill="#0A0C04"/><path d="M22.5 24.61a2.11 2.11 0 100-4.22 2.11 2.11 0 000 4.22zM14.063 24.61a2.11 2.11 0 100-4.22 2.11 2.11 0 000 4.22zM30.938 24.61a2.11 2.11 0 100-4.22 2.11 2.11 0 000 4.22z" fill="#0A0C04"/></svg><svg fill="none" viewBox="0 0 20 20" id="chat-user" xmlns="http://www.w3.org/2000/svg"><path d="M16.667 17.5v-1.667a3.333 3.333 0 00-3.334-3.333H6.667a3.333 3.333 0 00-3.334 3.333V17.5M10 9.167A3.333 3.333 0 1010 2.5a3.333 3.333 0 000 6.667z" stroke="inherit" stroke-linecap="round" stroke-linejoin="round"/></svg><svg fill="none" viewBox="0 0 60 60" id="circle" xmlns="http://www.w3.org/2000/svg"><circle cx="30" cy="30" r="27" stroke="#0A0C04" stroke-width="6"/></svg><svg fill="none" viewBox="0 0 60 60" id="circle-white" xmlns="http://www.w3.org/2000/svg"><circle cx="30" cy="30" r="27" stroke="#fff" stroke-width="6"/></svg><svg fill="none" viewBox="0 0 49 50" id="cross" xmlns="http://www.w3.org/2000/svg"><path d="M3 3l43 43M3 46.144l43-43" stroke="#0A0C04" stroke-width="6" stroke-linecap="round"/></svg><svg fill="none" viewBox="0 0 49 50" id="cross-white" xmlns="http://www.w3.org/2000/svg"><path d="M3 3l43 43M3 46.144l43-43" stroke="#fff" stroke-width="6" stroke-linecap="round"/></svg><svg fill="none" viewBox="0 0 32 32" id="user" xmlns="http://www.w3.org/2000/svg"><path d="M26.667 28v-2.667A5.333 5.333 0 0021.333 20H10.667a5.333 5.333 0 00-5.334 5.333V28M16 14.667A5.333 5.333 0 1016 4a5.333 5.333 0 000 10.667z"/></svg></svg>